<?xml version="1.0" standalone="no"?>
<!DOCTYPE svg PUBLIC "-//W3C//DTD SVG 20010904//EN"
 "http://www.w3.org/TR/2001/REC-SVG-20010904/DTD/svg10.dtd">
<svg version="1.0" xmlns="http://www.w3.org/2000/svg"
 width="700.000000pt" height="700.000000pt" viewBox="0 0 700.000000 700.000000"
 preserveAspectRatio="xMidYMid meet">
<metadata>
Created by potrace 1.14, written by Peter Selinger 2001-2017
</metadata>
<g transform="translate(0.000000,700.000000) scale(0.100000,-0.100000)"
fill="#000000" stroke="none">
<path d="M3302 6660 l3 -105 95 2 c52 1 100 2 105 2 6 1 9 26 8 59 -1 31 -2
78 -2 105 l-1 47 -105 -2 -106 -3 3 -105z"/>
<path d="M3743 6738 c-1 -43 -15 -173 -20 -180 -2 -5 11 -8 29 -9 18 0 40 -2
48 -3 53 -10 130 -15 133 -9 3 5 8 44 12 88 4 44 9 88 11 98 1 9 -3 17 -9 18
-7 0 -19 2 -27 3 -8 2 -51 6 -95 10 -80 7 -81 7 -82 -16z"/>
<path d="M2975 6730 c-22 -4 -57 -10 -78 -13 -21 -3 -40 -7 -41 -8 -7 -8 27
-194 36 -200 5 -3 30 -2 54 2 25 5 66 11 92 15 26 3 49 8 51 9 2 2 -2 44 -9
92 -7 48 -13 94 -13 101 0 13 -30 14 -92 2z"/>
<path d="M4175 6633 c-10 -38 -19 -84 -22 -104 l-4 -35 97 -22 c53 -12 99 -20
101 -18 6 5 31 105 42 160 l8 44 -41 7 c-23 4 -45 9 -51 10 -28 8 -101 25
-106 25 -4 0 -14 -30 -24 -67z"/>
<path d="M2512 6629 c-102 -34 -100 -30 -67 -119 7 -19 13 -38 13 -43 0 -4 3
-21 7 -38 8 -35 9 -35 137 5 61 19 72 26 70 42 -7 42 -54 184 -60 183 -4 0
-49 -14 -100 -30z"/>
<path d="M4591 6493 c-17 -49 -32 -92 -32 -97 -1 -12 171 -78 186 -72 6 2 22
33 34 68 12 34 25 70 28 78 16 42 13 45 -80 78 -51 18 -95 32 -98 32 -4 0 -21
-39 -38 -87z"/>
<path d="M2084 6472 l-82 -38 18 -44 c9 -25 28 -69 41 -97 l24 -53 93 41 c50
23 92 46 92 53 0 6 -16 47 -35 91 -23 54 -40 81 -52 82 -10 1 -55 -14 -99 -35z"/>
<path d="M5032 6398 c-7 -7 -12 -15 -12 -19 0 -3 -18 -38 -39 -78 l-39 -71 41
-24 c80 -46 142 -75 149 -68 3 4 27 45 52 93 l45 85 -87 45 c-48 24 -89 45
-92 47 -3 1 -11 -3 -18 -10z"/>
<path d="M1696 6269 c-44 -27 -81 -51 -83 -53 -7 -7 99 -176 110 -176 5 0 21
8 35 19 15 10 32 20 37 22 6 2 31 17 57 33 l46 30 -34 53 c-19 29 -34 56 -34
59 0 10 -41 64 -48 63 -4 0 -43 -23 -86 -50z"/>
<path d="M5366 6099 c-32 -44 -54 -84 -50 -88 5 -5 41 -30 79 -57 39 -26 72
-52 75 -56 6 -7 95 106 118 149 11 20 6 26 -67 77 -43 31 -83 56 -88 56 -5 0
-36 -36 -67 -81z"/>
<path d="M1334 6014 c-38 -31 -73 -60 -78 -64 -4 -5 21 -45 58 -89 l65 -81 75
61 c42 33 78 64 81 69 5 9 -112 160 -125 160 -4 0 -38 -25 -76 -56z"/>
<path d="M4067 6053 c-8 -10 -27 -45 -42 -78 -32 -70 -33 -73 -120 -275 -36
-85 -75 -174 -86 -197 -10 -23 -107 -246 -215 -495 -108 -249 -206 -472 -220
-494 -26 -46 -33 -50 -219 -124 -572 -228 -1248 -472 -1278 -461 -10 4 -39 45
-64 91 -144 270 -333 416 -638 494 -80 20 -146 29 -230 30 -123 2 -163 -32
-163 -139 1 -209 113 -438 285 -580 111 -92 309 -175 471 -199 38 -5 81 -31
83 -49 3 -27 -3 -65 -18 -127 -8 -36 -17 -76 -20 -90 -7 -42 -109 -436 -152
-585 -198 -696 -200 -705 -171 -740 8 -9 25 -21 38 -26 13 -5 218 -9 457 -10
388 0 438 1 470 17 40 19 61 46 94 124 47 110 114 241 120 235 3 -4 42 -79 86
-167 67 -135 85 -165 114 -180 31 -18 57 -19 320 -17 288 2 827 -1 1021 -5
248 -5 366 63 425 244 9 30 22 60 27 65 11 12 22 -1 123 -152 57 -83 85 -116
113 -130 34 -16 71 -18 451 -20 363 -2 417 0 445 14 81 41 74 63 -154 478 -15
28 -43 79 -62 115 -20 36 -93 171 -163 300 -71 129 -144 264 -163 300 -20 36
-48 88 -64 115 -15 28 -42 78 -59 111 -49 96 -126 126 -177 70 -25 -26 -49
-75 -190 -376 -60 -129 -158 -336 -217 -460 -59 -124 -123 -258 -141 -297 -54
-116 -48 -113 -229 -113 -144 0 -157 2 -176 21 -18 18 -20 28 -14 92 3 40 8
99 10 132 2 33 7 85 9 115 23 246 27 366 14 396 -23 49 -45 48 -397 -15 -152
-28 -294 -53 -316 -57 -22 -3 -85 -14 -140 -24 -55 -11 -116 -22 -135 -25 -19
-3 -69 -12 -110 -20 -41 -8 -88 -16 -105 -19 -113 -16 -175 -32 -207 -52 -41
-26 -65 -72 -247 -467 -16 -34 -37 -69 -46 -77 -24 -20 -487 -22 -507 -2 -15
15 7 105 99 427 106 368 172 630 187 745 21 160 40 209 85 230 14 7 98 36 186
65 175 58 446 155 650 233 200 77 496 192 540 211 22 10 69 28 105 42 93 34
145 90 194 204 61 144 196 455 222 512 12 28 57 131 99 230 109 255 177 403
185 403 6 0 122 -227 184 -361 32 -69 94 -141 150 -174 43 -25 124 -59 286
-118 52 -20 214 -81 360 -137 146 -56 360 -138 475 -182 260 -99 272 -104 279
-131 4 -15 -15 -65 -55 -152 -34 -71 -70 -149 -81 -173 -31 -66 -67 -103 -128
-130 -54 -24 -57 -24 -255 -17 -226 7 -309 12 -550 31 -127 10 -225 24 -247
36 -22 11 -41 48 -58 113 -29 114 -63 148 -157 161 -47 6 -54 4 -77 -19 -16
-16 -27 -38 -27 -57 -1 -16 -2 -49 -3 -72 -3 -58 21 -161 47 -207 33 -56 57
-84 109 -123 73 -56 123 -69 308 -83 47 -4 105 -8 130 -10 25 -2 95 -7 155
-10 61 -4 135 -8 165 -10 30 -2 136 -7 235 -10 162 -6 188 -4 260 15 100 26
173 69 237 140 52 58 88 127 208 395 40 88 81 178 91 200 26 53 34 107 20 133
-11 20 -79 57 -157 85 -21 7 -151 57 -289 110 -137 52 -306 116 -374 141 -126
47 -169 71 -209 116 -13 14 -104 187 -202 384 -99 198 -187 367 -196 377 -21
23 -56 28 -93 13 -34 -14 -53 -49 -127 -229 -48 -116 -63 -141 -75 -128 -4 4
-69 132 -145 283 -75 151 -144 280 -153 287 -25 19 -95 16 -114 -4z m-2867
-1810 c90 -28 189 -91 271 -172 78 -78 136 -162 124 -181 -17 -27 -225 44
-321 111 -89 61 -194 198 -194 254 0 20 24 17 120 -12z m3670 -1268 c46 -86
55 -103 212 -391 125 -229 154 -294 138 -304 -6 -4 -90 -10 -186 -13 -203 -8
-210 -6 -275 76 -46 58 -163 234 -171 257 -6 17 5 43 94 230 36 74 77 163 93
197 32 72 26 75 95 -52z m-1352 -232 c5 -10 8 -34 7 -53 -2 -19 -6 -84 -10
-145 -4 -60 -8 -125 -7 -142 0 -18 -3 -33 -7 -33 -12 0 -134 351 -125 360 12
11 72 28 106 29 17 1 31 -6 36 -16z m-413 -87 c14 -14 25 -32 25 -41 0 -8 4
-23 9 -33 13 -25 89 -233 97 -266 5 -19 2 -31 -7 -37 -8 -5 -96 -9 -196 -8
-242 1 -248 3 -319 146 -53 106 -81 180 -72 188 2 3 29 9 59 15 30 5 68 12 84
15 17 3 71 13 120 21 50 9 91 17 92 18 1 1 21 3 43 4 31 2 45 -3 65 -22z"/>
<path d="M5717 5839 c-37 -39 -67 -74 -67 -78 0 -8 116 -121 138 -134 11 -7
49 28 126 114 l26 29 -71 67 c-39 38 -74 69 -78 71 -5 1 -38 -29 -74 -69z"/>
<path d="M1049 5757 c-13 -13 -46 -47 -74 -76 l-50 -52 73 -69 c41 -39 77 -70
80 -70 7 0 83 78 125 127 20 24 27 15 -85 121 l-44 43 -25 -24z"/>
<path d="M6021 5526 l-81 -64 65 -81 c42 -51 71 -79 78 -74 32 19 147 116 147
124 0 8 -119 159 -126 159 -1 0 -39 -29 -83 -64z"/>
<path d="M733 5388 c-21 -29 -49 -67 -61 -85 l-22 -31 86 -62 c47 -33 87 -60
88 -58 1 2 26 36 55 76 29 40 54 79 57 85 3 10 -143 127 -159 127 -3 0 -22
-24 -44 -52z"/>
<path d="M6290 5184 c-41 -25 -79 -50 -84 -54 -5 -5 14 -47 45 -98 l54 -89 75
45 c113 68 110 57 50 156 -29 47 -56 86 -59 86 -3 0 -40 -21 -81 -46z"/>
<path d="M477 4978 c-26 -49 -44 -94 -41 -99 6 -11 159 -89 172 -89 5 0 30 40
55 89 l47 89 -63 35 c-34 19 -76 42 -93 50 l-30 16 -47 -91z"/>
<path d="M6545 4818 c-28 -11 -71 -30 -97 -41 l-47 -20 19 -46 c10 -25 29 -70
41 -99 23 -50 25 -52 49 -39 14 7 54 24 89 37 35 14 65 30 67 36 3 5 -12 51
-33 101 l-38 91 -50 -20z"/>
<path d="M321 4639 c-43 -116 -61 -173 -54 -179 4 -4 47 -21 95 -37 63 -22 90
-27 96 -19 5 6 22 50 39 98 27 77 29 88 14 93 -9 4 -45 17 -81 30 -36 13 -73
26 -82 30 -13 5 -20 1 -27 -16z"/>
<path d="M6650 4389 c-41 -11 -80 -21 -87 -24 -8 -3 -4 -30 13 -96 13 -51 28
-97 32 -101 7 -7 187 34 198 44 1 2 -6 35 -16 73 -10 39 -21 82 -24 98 -8 32
-15 33 -116 6z"/>
<path d="M185 4193 c-8 -43 -11 -59 -23 -125 -7 -34 -6 -48 2 -49 6 0 18 -2
26 -4 98 -22 164 -35 167 -31 2 2 6 16 9 32 3 15 12 59 20 97 8 39 13 71 11
73 -2 2 -37 10 -78 18 -41 8 -86 17 -100 21 -24 6 -27 4 -34 -32z"/>
<path d="M6839 3976 c-4 -3 -93 -15 -159 -20 -24 -2 -25 -4 -22 -72 1 -38 4
-78 6 -89 3 -11 5 -28 5 -38 1 -16 7 -17 54 -11 28 4 59 8 67 10 8 1 32 3 53
3 35 1 37 3 33 29 -2 15 -7 59 -11 98 -6 66 -16 99 -26 90z"/>
<path d="M120 3748 c-1 -18 -3 -66 -7 -105 l-5 -73 38 -1 c22 0 70 -2 107 -2
l69 -2 4 103 c3 56 3 102 2 102 -2 1 -49 3 -105 6 l-103 6 0 -34z"/>
<path d="M6679 3493 c0 -21 -2 -66 -3 -101 -1 -35 2 -66 7 -69 11 -7 177 -12
192 -6 7 2 11 43 10 106 l0 102 -102 3 -103 4 -1 -39z"/>
<path d="M258 3345 c-2 -2 -87 -11 -140 -14 -7 -1 -5 -29 6 -116 3 -16 5 -45
5 -63 l1 -32 73 6 c64 6 104 10 130 13 5 1 6 34 2 74 -4 39 -8 86 -9 102 -1
27 -5 30 -34 31 -17 1 -33 0 -34 -1z"/>
<path d="M6637 3007 c-9 -56 -15 -103 -13 -104 4 -4 104 -23 157 -29 l47 -6
12 73 c21 125 20 132 -20 140 -19 4 -55 10 -80 13 -25 3 -54 8 -66 10 -19 4
-22 -4 -37 -97z"/>
<path d="M355 2925 c-5 -1 -46 -11 -90 -20 -44 -10 -83 -21 -88 -24 -8 -8 31
-180 44 -195 8 -9 186 31 194 44 6 9 -37 200 -45 199 -3 0 -9 -2 -15 -4z"/>
<path d="M6543 2617 c-42 -136 -48 -120 63 -156 54 -17 98 -30 99 -28 10 12
62 194 57 199 -8 7 -172 58 -188 58 -5 0 -19 -33 -31 -73z"/>
<path d="M381 2484 c-46 -18 -86 -35 -87 -37 -3 -3 64 -186 71 -195 2 -3 185
67 193 73 7 6 -72 195 -82 194 -6 -1 -49 -16 -95 -35z"/>
<path d="M6378 2203 l-46 -94 89 -45 c50 -24 94 -42 99 -39 10 6 73 127 84
161 7 22 -19 40 -124 87 l-55 24 -47 -94z"/>
<path d="M560 2084 c-41 -24 -79 -45 -84 -47 -5 -1 15 -45 44 -95 28 -51 55
-92 58 -90 48 22 172 95 172 101 0 18 -94 177 -104 176 -6 0 -45 -20 -86 -45z"/>
<path d="M1831 1918 c-28 -76 -161 -447 -165 -464 -6 -19 -2 -21 49 -21 l54 0
19 56 19 56 79 0 c43 1 84 -3 91 -8 6 -4 14 -25 18 -45 3 -21 9 -42 13 -49 10
-15 112 -26 112 -11 0 15 -145 482 -155 497 -2 4 -31 9 -65 10 -55 2 -61 0
-69 -21z m119 -268 c0 -12 -11 -15 -51 -13 -29 1 -54 5 -56 7 -5 5 6 45 40
139 l20 59 23 -89 c13 -48 24 -95 24 -103z"/>
<path d="M2369 1919 c-3 -6 -7 -133 -10 -324 l-4 -170 99 -3 c211 -6 304 69
307 248 2 104 -46 186 -131 223 -32 15 -75 21 -152 25 -60 2 -109 3 -109 1z
m233 -116 c33 -30 48 -69 48 -128 0 -108 -38 -156 -129 -163 l-59 -4 3 138 c2
77 3 150 4 163 1 23 3 24 57 18 33 -3 64 -13 76 -24z"/>
<path d="M4536 1907 c-12 -9 -17 -23 -14 -42 7 -62 108 -58 108 4 0 16 -5 33
-11 37 -22 13 -66 13 -83 1z"/>
<path d="M4814 1913 c-36 -7 -65 -47 -68 -93 -2 -35 -8 -45 -30 -57 -37 -19
-33 -57 7 -61 l27 -3 0 -135 0 -134 53 0 53 0 -3 135 -4 135 28 2 c15 0 35 1
43 2 10 1 15 12 15 36 0 35 -1 35 -43 35 -42 0 -43 1 -40 30 3 28 6 30 47 31
41 1 44 3 56 37 11 33 11 36 -9 41 -23 6 -99 6 -132 -1z"/>
<path d="M6167 1836 l-57 -86 75 -50 c41 -28 81 -53 89 -56 12 -5 72 72 120
153 4 8 -20 30 -69 63 -41 28 -81 53 -88 56 -9 3 -35 -27 -70 -80z"/>
<path d="M4156 1668 c2 -123 3 -229 3 -236 1 -10 35 -12 152 -11 l150 1 -3 42
-3 41 -95 0 -95 0 -2 55 c-1 30 -2 117 -2 193 l-1 137 -53 0 -53 0 2 -222z"/>
<path d="M2995 1794 c-5 -1 -26 -5 -45 -8 -75 -13 -123 -85 -123 -187 -1 -112
54 -179 156 -192 82 -10 153 28 183 99 21 49 21 151 0 192 -14 28 -70 82 -84
82 -4 0 -23 4 -42 9 -19 4 -39 7 -45 5z m56 -103 c21 -17 24 -28 24 -91 0 -63
-3 -74 -24 -91 -30 -25 -73 -24 -96 1 -19 21 -31 95 -21 135 15 60 72 82 117
46z"/>
<path d="M3309 1773 c-41 -16 -69 -58 -69 -103 0 -35 23 -86 42 -93 10 -3 9
-9 -3 -23 -27 -32 -31 -55 -13 -82 14 -21 14 -27 4 -30 -27 -9 -60 -52 -60
-77 0 -52 26 -83 84 -100 139 -41 286 23 286 122 -1 79 -33 105 -132 109 -71
3 -108 10 -108 22 1 18 18 28 45 27 49 -2 98 15 128 43 25 23 28 33 26 77 -3
45 -1 50 21 55 18 4 24 13 25 33 l2 27 -81 2 c-45 1 -99 3 -122 4 -22 1 -56
-5 -75 -13z m128 -82 c11 -40 10 -45 -5 -63 -21 -25 -69 -23 -82 2 -17 32 -8
73 18 86 33 16 61 6 69 -25z m42 -296 c7 -7 11 -21 8 -30 -16 -40 -140 -56
-174 -22 -22 22 -7 55 30 66 41 11 118 4 136 -14z"/>
<path d="M3715 1780 c-69 -16 -95 -44 -95 -103 0 -48 29 -80 105 -113 67 -29
83 -47 64 -70 -14 -18 -50 -18 -116 0 l-53 14 0 -43 c0 -41 2 -44 33 -51 136
-31 247 15 247 104 0 53 -22 78 -103 118 -84 41 -83 40 -67 59 16 19 51 19 95
1 39 -17 55 -6 58 40 2 22 -3 28 -28 35 -47 13 -107 17 -140 9z"/>
<path d="M5076 1780 c-63 -20 -106 -85 -106 -162 0 -135 75 -197 221 -185 90
8 109 18 104 58 -6 41 -9 43 -36 28 -12 -6 -47 -13 -77 -14 -46 -3 -58 0 -78
20 -44 44 -33 55 59 56 45 1 97 0 115 -1 32 -2 32 -1 32 47 0 56 -24 108 -62
137 -31 22 -124 31 -172 16z m114 -80 c20 -20 27 -49 13 -51 -5 0 -34 -2 -65
-3 -50 -2 -58 1 -58 16 0 26 36 58 65 58 14 0 34 -9 45 -20z"/>
<path d="M4533 1771 c-5 -3 -7 -51 -6 -106 1 -55 2 -132 2 -171 l1 -71 48 3
c26 1 49 2 52 3 6 1 0 334 -6 340 -6 7 -82 8 -91 2z"/>
<path d="M788 1712 c-43 -31 -77 -61 -78 -65 0 -5 28 -44 61 -88 l61 -79 27
19 c14 10 52 39 83 63 l58 45 -61 81 c-34 45 -64 82 -68 82 -3 0 -41 -26 -83
-58z"/>
<path d="M5933 1533 c-22 -27 -53 -61 -68 -77 l-27 -29 29 -26 c15 -14 50 -46
78 -70 l50 -43 71 77 71 77 -46 42 c-87 79 -106 96 -112 96 -3 0 -24 -21 -46
-47z"/>
<path d="M1065 1374 l-74 -76 37 -35 c20 -19 54 -53 74 -74 l37 -39 75 73 75
73 -74 77 -75 77 -75 -76z"/>
<path d="M5650 1247 c-20 -17 -56 -48 -80 -68 l-44 -36 54 -64 c72 -84 77 -89
87 -89 5 0 29 17 54 39 24 21 57 50 74 64 l29 25 -36 43 c-20 24 -51 61 -69
81 l-34 38 -35 -33z"/>
<path d="M1388 1083 c-32 -42 -58 -81 -58 -87 0 -11 129 -113 153 -121 11 -4
110 116 123 148 4 12 -70 78 -136 119 -25 16 -25 16 -82 -59z"/>
<path d="M5263 955 l-83 -55 51 -77 c28 -43 54 -82 59 -87 11 -11 181 95 176
110 -10 28 -102 163 -111 163 -5 0 -47 -24 -92 -54z"/>
<path d="M1741 828 c-28 -50 -50 -92 -49 -93 2 -2 28 -17 58 -35 30 -18 69
-41 87 -52 l32 -19 24 38 c13 21 38 63 54 95 27 49 29 57 15 62 -17 5 -106 54
-148 81 -20 13 -24 8 -73 -77z"/>
<path d="M4898 754 c-49 -24 -88 -46 -88 -49 0 -16 84 -185 90 -183 67 27 180
84 180 91 0 15 -82 187 -89 186 -3 -1 -45 -21 -93 -45z"/>
<path d="M2126 625 c-21 -53 -37 -97 -35 -99 8 -8 190 -78 193 -75 16 23 75
184 69 190 -5 4 -33 17 -63 29 -30 12 -69 29 -87 36 -17 8 -33 14 -35 14 -1 0
-20 -43 -42 -95z"/>
<path d="M4515 601 c-44 -15 -86 -29 -94 -32 -11 -4 -8 -24 18 -102 18 -53 35
-97 39 -97 14 0 178 53 186 60 9 9 -51 201 -62 199 -4 -1 -43 -13 -87 -28z"/>
<path d="M2550 528 c-6 -24 -18 -67 -27 -96 -8 -30 -13 -55 -11 -57 6 -7 199
-57 202 -53 7 8 48 188 45 195 -2 4 -8 8 -14 9 -5 1 -35 9 -65 18 -30 9 -69
19 -87 22 -31 5 -32 3 -43 -38z"/>
<path d="M4077 493 l-78 -15 6 -52 c4 -28 9 -54 11 -57 2 -3 6 -26 9 -49 3
-24 7 -45 8 -47 2 -1 44 5 93 13 49 9 95 17 102 17 8 0 11 10 9 26 -30 183
-29 181 -56 180 -15 -1 -61 -8 -104 -16z"/>
<path d="M2969 463 c0 -10 -2 -27 -4 -38 -1 -11 -6 -50 -10 -87 -7 -66 -6 -68
17 -69 12 0 32 -2 43 -5 11 -2 48 -6 81 -10 l61 -6 13 97 c6 54 8 101 3 105
-4 4 -33 11 -63 14 -30 4 -74 9 -97 12 -37 5 -43 3 -44 -13z"/>
<path d="M3424 442 l-31 -3 1 -105 0 -105 151 2 c82 2 173 5 202 7 l51 4 -3
41 c-2 23 -4 70 -4 104 l-1 62 -167 -2 c-93 -1 -182 -3 -199 -5z"/>
</g>
</svg>
